<mxfile host="Electron" agent="Mozilla/5.0 (Windows NT 10.0; Win64; x64) AppleWebKit/537.36 (KHTML, like Gecko) draw.io/27.0.9 Chrome/134.0.6998.205 Electron/35.4.0 Safari/537.36" version="27.0.9">
  <diagram name="Page-1" id="VA4MJNgwqOIxdSmJhErK">
    <mxGraphModel dx="872" dy="529" grid="1" gridSize="10" guides="1" tooltips="1" connect="1" arrows="1" fold="1" page="1" pageScale="1" pageWidth="827" pageHeight="1169" math="0" shadow="0">
      <root>
        <mxCell id="0" />
        <mxCell id="1" parent="0" />
        <mxCell id="NbCu8QdAzqQWzqPstgnW-3" value="" style="edgeStyle=orthogonalEdgeStyle;rounded=0;orthogonalLoop=1;jettySize=auto;html=1;fontFamily=Helvetica;fontSize=12;fontColor=default;" parent="1" source="NbCu8QdAzqQWzqPstgnW-1" target="NbCu8QdAzqQWzqPstgnW-2" edge="1">
          <mxGeometry relative="1" as="geometry" />
        </mxCell>
        <mxCell id="NbCu8QdAzqQWzqPstgnW-1" value="Mulai" style="ellipse;whiteSpace=wrap;html=1;fillColor=none;" parent="1" vertex="1">
          <mxGeometry x="340" y="100" width="120" height="80" as="geometry" />
        </mxCell>
        <mxCell id="NbCu8QdAzqQWzqPstgnW-5" value="" style="edgeStyle=orthogonalEdgeStyle;rounded=0;orthogonalLoop=1;jettySize=auto;html=1;fontFamily=Helvetica;fontSize=12;fontColor=default;" parent="1" source="NbCu8QdAzqQWzqPstgnW-2" target="NbCu8QdAzqQWzqPstgnW-4" edge="1">
          <mxGeometry relative="1" as="geometry" />
        </mxCell>
        <mxCell id="NbCu8QdAzqQWzqPstgnW-2" value="&lt;div style=&quot;line-height: 100%;&quot;&gt;Input:&amp;nbsp;&lt;/div&gt;&lt;div style=&quot;line-height: 100%;&quot;&gt;Data Training, Hyperparameters&lt;/div&gt;" style="shape=parallelogram;perimeter=parallelogramPerimeter;whiteSpace=wrap;html=1;fixedSize=1;strokeColor=default;align=center;verticalAlign=middle;fontFamily=Helvetica;fontSize=12;fontColor=default;fillColor=none;" parent="1" vertex="1">
          <mxGeometry x="510.01" y="110" width="129.99" height="60" as="geometry" />
        </mxCell>
        <mxCell id="NbCu8QdAzqQWzqPstgnW-7" value="" style="edgeStyle=orthogonalEdgeStyle;rounded=0;orthogonalLoop=1;jettySize=auto;html=1;fontFamily=Helvetica;fontSize=12;fontColor=default;" parent="1" source="NbCu8QdAzqQWzqPstgnW-4" target="NbCu8QdAzqQWzqPstgnW-6" edge="1">
          <mxGeometry relative="1" as="geometry" />
        </mxCell>
        <mxCell id="NbCu8QdAzqQWzqPstgnW-4" value="Inisialisasi Model: Buat prediksi awal" style="rounded=0;whiteSpace=wrap;html=1;strokeColor=default;align=center;verticalAlign=middle;fontFamily=Helvetica;fontSize=12;fontColor=default;fillColor=none;" parent="1" vertex="1">
          <mxGeometry x="515" y="220" width="120" height="60" as="geometry" />
        </mxCell>
        <mxCell id="gYYAoUsyfD0-Huga9Zhp-12" value="" style="edgeStyle=orthogonalEdgeStyle;rounded=0;orthogonalLoop=1;jettySize=auto;html=1;" parent="1" source="NbCu8QdAzqQWzqPstgnW-6" target="gYYAoUsyfD0-Huga9Zhp-3" edge="1">
          <mxGeometry relative="1" as="geometry" />
        </mxCell>
        <mxCell id="NbCu8QdAzqQWzqPstgnW-6" value="Inisialisasi Loop: Atur penghitung pohon, &lt;span class=&quot;katex&quot;&gt;&lt;span aria-hidden=&quot;true&quot; class=&quot;katex-html&quot;&gt;&lt;span class=&quot;base&quot;&gt;&lt;span style=&quot;height: 0.6595em;&quot; class=&quot;strut&quot;&gt;&lt;/span&gt;&lt;span class=&quot;mord mathnormal&quot;&gt;&lt;i&gt;i&lt;/i&gt;&lt;/span&gt;&lt;span style=&quot;margin-right: 0.2778em;&quot; class=&quot;mspace&quot;&gt;&lt;/span&gt;&lt;span class=&quot;mrel&quot;&gt;=&lt;/span&gt;&lt;span style=&quot;margin-right: 0.2778em;&quot; class=&quot;mspace&quot;&gt;&lt;/span&gt;&lt;/span&gt;&lt;span class=&quot;base&quot;&gt;&lt;span style=&quot;height: 0.6444em;&quot; class=&quot;strut&quot;&gt;&lt;/span&gt;&lt;span class=&quot;mord&quot;&gt;1&lt;/span&gt;&lt;/span&gt;&lt;/span&gt;&lt;/span&gt;" style="rounded=0;whiteSpace=wrap;html=1;strokeColor=default;align=center;verticalAlign=middle;fontFamily=Helvetica;fontSize=12;fontColor=default;fillColor=none;" parent="1" vertex="1">
          <mxGeometry x="340" y="220" width="120" height="60" as="geometry" />
        </mxCell>
        <mxCell id="NbCu8QdAzqQWzqPstgnW-11" value="" style="edgeStyle=orthogonalEdgeStyle;rounded=0;orthogonalLoop=1;jettySize=auto;html=1;fontFamily=Helvetica;fontSize=12;fontColor=default;" parent="1" target="NbCu8QdAzqQWzqPstgnW-10" edge="1">
          <mxGeometry relative="1" as="geometry">
            <mxPoint x="460" y="332" as="sourcePoint" />
          </mxGeometry>
        </mxCell>
        <mxCell id="gYYAoUsyfD0-Huga9Zhp-15" value="" style="edgeStyle=orthogonalEdgeStyle;rounded=0;orthogonalLoop=1;jettySize=auto;html=1;" parent="1" source="NbCu8QdAzqQWzqPstgnW-10" target="gYYAoUsyfD0-Huga9Zhp-11" edge="1">
          <mxGeometry relative="1" as="geometry" />
        </mxCell>
        <mxCell id="NbCu8QdAzqQWzqPstgnW-10" value="Hitung Residu (Target untuk Pohon Baru)" style="rounded=0;whiteSpace=wrap;html=1;strokeColor=default;align=center;verticalAlign=middle;fontFamily=Helvetica;fontSize=12;fontColor=default;fillColor=none;" parent="1" vertex="1">
          <mxGeometry x="510" y="302" width="120" height="60" as="geometry" />
        </mxCell>
        <mxCell id="gYYAoUsyfD0-Huga9Zhp-17" value="" style="edgeStyle=orthogonalEdgeStyle;rounded=0;orthogonalLoop=1;jettySize=auto;html=1;" parent="1" source="NbCu8QdAzqQWzqPstgnW-14" target="gYYAoUsyfD0-Huga9Zhp-16" edge="1">
          <mxGeometry relative="1" as="geometry" />
        </mxCell>
        <mxCell id="NbCu8QdAzqQWzqPstgnW-14" value="&lt;div style=&quot;line-height: 105%;&quot;&gt;Buat Representasi Histogram&lt;/div&gt;" style="rounded=0;whiteSpace=wrap;html=1;strokeColor=default;align=center;verticalAlign=middle;fontFamily=Helvetica;fontSize=12;fontColor=default;fillColor=none;" parent="1" vertex="1">
          <mxGeometry x="340" y="390" width="119.99" height="60" as="geometry" />
        </mxCell>
        <mxCell id="gYYAoUsyfD0-Huga9Zhp-41" style="edgeStyle=orthogonalEdgeStyle;rounded=0;orthogonalLoop=1;jettySize=auto;html=1;entryX=0;entryY=0.5;entryDx=0;entryDy=0;" parent="1" source="gYYAoUsyfD0-Huga9Zhp-3" target="gYYAoUsyfD0-Huga9Zhp-38" edge="1">
          <mxGeometry relative="1" as="geometry">
            <Array as="points">
              <mxPoint x="320" y="332" />
              <mxPoint x="320" y="820" />
            </Array>
          </mxGeometry>
        </mxCell>
        <mxCell id="gYYAoUsyfD0-Huga9Zhp-3" value="Apakah &lt;span class=&quot;katex&quot;&gt;&lt;span aria-hidden=&quot;true&quot; class=&quot;katex-html&quot;&gt;&lt;span class=&quot;base&quot;&gt;&lt;span style=&quot;height: 0.7955em; vertical-align: -0.136em;&quot; class=&quot;strut&quot;&gt;&lt;/span&gt;&lt;span class=&quot;mord mathnormal&quot;&gt;i&lt;/span&gt;&lt;span style=&quot;margin-right: 0.2778em;&quot; class=&quot;mspace&quot;&gt;&lt;/span&gt;&lt;span class=&quot;mrel&quot;&gt;â‰¤&lt;/span&gt;&lt;span style=&quot;margin-right: 0.2778em;&quot; class=&quot;mspace&quot;&gt;&lt;/span&gt;&lt;/span&gt;&lt;span class=&quot;base&quot;&gt;&lt;span style=&quot;height: 0.6833em;&quot; class=&quot;strut&quot;&gt;&lt;/span&gt;&lt;span style=&quot;margin-right: 0.109em;&quot; class=&quot;mord mathnormal&quot;&gt;N&lt;/span&gt;&lt;/span&gt;&lt;/span&gt;&lt;/span&gt;" style="rhombus;whiteSpace=wrap;html=1;fillColor=none;" parent="1" vertex="1">
          <mxGeometry x="340" y="302" width="120" height="60" as="geometry" />
        </mxCell>
        <mxCell id="gYYAoUsyfD0-Huga9Zhp-5" value="Ya" style="text;html=1;align=center;verticalAlign=middle;resizable=0;points=[];autosize=1;strokeColor=none;fillColor=none;" parent="1" vertex="1">
          <mxGeometry x="450" y="300" width="40" height="30" as="geometry" />
        </mxCell>
        <mxCell id="gYYAoUsyfD0-Huga9Zhp-10" value="" style="edgeStyle=orthogonalEdgeStyle;rounded=0;orthogonalLoop=1;jettySize=auto;html=1;" parent="1" target="NbCu8QdAzqQWzqPstgnW-14" edge="1">
          <mxGeometry relative="1" as="geometry">
            <mxPoint x="510" y="420" as="sourcePoint" />
          </mxGeometry>
        </mxCell>
        <mxCell id="gYYAoUsyfD0-Huga9Zhp-11" value="&lt;div style=&quot;line-height: 105%;&quot;&gt;&lt;font style=&quot;font-size: 11px;&quot;&gt;Mulai Bangun Pohon Keputusan&amp;nbsp;&lt;i&gt;i:&amp;nbsp;&lt;/i&gt;&lt;span style=&quot;background-color: transparent; color: light-dark(rgb(0, 0, 0), rgb(255, 255, 255));&quot;&gt;optimisasi GOSS &amp;amp; EFB&lt;/span&gt;&lt;/font&gt;&lt;/div&gt;" style="rounded=0;whiteSpace=wrap;html=1;strokeColor=default;align=center;verticalAlign=middle;fontFamily=Helvetica;fontSize=12;fontColor=default;fillColor=none;" parent="1" vertex="1">
          <mxGeometry x="510" y="390" width="119.99" height="60" as="geometry" />
        </mxCell>
        <mxCell id="gYYAoUsyfD0-Huga9Zhp-20" value="" style="edgeStyle=orthogonalEdgeStyle;rounded=0;orthogonalLoop=1;jettySize=auto;html=1;" parent="1" source="gYYAoUsyfD0-Huga9Zhp-16" target="gYYAoUsyfD0-Huga9Zhp-18" edge="1">
          <mxGeometry relative="1" as="geometry" />
        </mxCell>
        <mxCell id="gYYAoUsyfD0-Huga9Zhp-16" value="&lt;div style=&quot;line-height: 105%;&quot;&gt;Inisialisasi Pohon ke-i&lt;/div&gt;" style="rounded=0;whiteSpace=wrap;html=1;strokeColor=default;align=center;verticalAlign=middle;fontFamily=Helvetica;fontSize=12;fontColor=default;fillColor=none;" parent="1" vertex="1">
          <mxGeometry x="340.01" y="470" width="119.99" height="60" as="geometry" />
        </mxCell>
        <mxCell id="gYYAoUsyfD0-Huga9Zhp-22" value="" style="edgeStyle=orthogonalEdgeStyle;rounded=0;orthogonalLoop=1;jettySize=auto;html=1;" parent="1" source="gYYAoUsyfD0-Huga9Zhp-18" target="gYYAoUsyfD0-Huga9Zhp-21" edge="1">
          <mxGeometry relative="1" as="geometry" />
        </mxCell>
        <mxCell id="gYYAoUsyfD0-Huga9Zhp-43" style="edgeStyle=orthogonalEdgeStyle;rounded=0;orthogonalLoop=1;jettySize=auto;html=1;exitX=0.5;exitY=0;exitDx=0;exitDy=0;entryX=1;entryY=0.5;entryDx=0;entryDy=0;" parent="1" source="gYYAoUsyfD0-Huga9Zhp-18" target="gYYAoUsyfD0-Huga9Zhp-31" edge="1">
          <mxGeometry relative="1" as="geometry">
            <Array as="points">
              <mxPoint x="565" y="460" />
              <mxPoint x="660" y="460" />
              <mxPoint x="660" y="740" />
            </Array>
          </mxGeometry>
        </mxCell>
        <mxCell id="gYYAoUsyfD0-Huga9Zhp-18" value="&lt;div style=&quot;line-height: 80%;&quot;&gt;&lt;div&gt;&lt;font style=&quot;line-height: 80%;&quot;&gt;Bisa Split Daun &amp;amp;&lt;/font&gt;&lt;/div&gt;&lt;div&gt;&lt;font style=&quot;line-height: 80%;&quot;&gt;Jumlah daun&amp;nbsp;&lt;/font&gt;&lt;/div&gt;&lt;div&gt;&lt;font style=&quot;line-height: 80%;&quot;&gt;&lt;span style=&quot;background-color: transparent; color: light-dark(rgb(0, 0, 0), rgb(255, 255, 255));&quot;&gt;&amp;lt; &lt;/span&gt;&lt;code style=&quot;background-color: transparent; color: light-dark(rgb(0, 0, 0), rgb(255, 255, 255));&quot;&gt;&lt;font style=&quot;&quot; face=&quot;Helvetica&quot;&gt;&lt;i&gt;max_leaves&lt;/i&gt;&lt;/font&gt;?&lt;/code&gt;&lt;/font&gt;&lt;/div&gt;&lt;/div&gt;" style="rhombus;whiteSpace=wrap;html=1;strokeColor=default;align=center;verticalAlign=middle;fontFamily=Helvetica;fontSize=12;fontColor=default;fillColor=none;" parent="1" vertex="1">
          <mxGeometry x="500" y="470" width="129.99" height="60" as="geometry" />
        </mxCell>
        <mxCell id="gYYAoUsyfD0-Huga9Zhp-24" value="" style="edgeStyle=orthogonalEdgeStyle;rounded=0;orthogonalLoop=1;jettySize=auto;html=1;" parent="1" source="gYYAoUsyfD0-Huga9Zhp-21" target="gYYAoUsyfD0-Huga9Zhp-23" edge="1">
          <mxGeometry relative="1" as="geometry" />
        </mxCell>
        <mxCell id="gYYAoUsyfD0-Huga9Zhp-21" value="&lt;div style=&quot;line-height: 105%;&quot;&gt;Pilih daun &lt;i&gt;gain &lt;/i&gt;terbesar&lt;/div&gt;" style="rounded=0;whiteSpace=wrap;html=1;strokeColor=default;align=center;verticalAlign=middle;fontFamily=Helvetica;fontSize=12;fontColor=default;fillColor=none;" parent="1" vertex="1">
          <mxGeometry x="505" y="550" width="119.99" height="60" as="geometry" />
        </mxCell>
        <mxCell id="gYYAoUsyfD0-Huga9Zhp-27" value="" style="edgeStyle=orthogonalEdgeStyle;rounded=0;orthogonalLoop=1;jettySize=auto;html=1;" parent="1" source="gYYAoUsyfD0-Huga9Zhp-23" target="gYYAoUsyfD0-Huga9Zhp-26" edge="1">
          <mxGeometry relative="1" as="geometry" />
        </mxCell>
        <mxCell id="gYYAoUsyfD0-Huga9Zhp-47" style="edgeStyle=orthogonalEdgeStyle;rounded=0;orthogonalLoop=1;jettySize=auto;html=1;entryX=0;entryY=0.5;entryDx=0;entryDy=0;" parent="1" source="gYYAoUsyfD0-Huga9Zhp-23" target="gYYAoUsyfD0-Huga9Zhp-18" edge="1">
          <mxGeometry relative="1" as="geometry">
            <Array as="points">
              <mxPoint x="480" y="550" />
              <mxPoint x="480" y="500" />
            </Array>
          </mxGeometry>
        </mxCell>
        <mxCell id="gYYAoUsyfD0-Huga9Zhp-23" value="&lt;div style=&quot;line-height: 80%;&quot;&gt;&lt;div&gt;&lt;font&gt;&lt;i style=&quot;&quot;&gt;gain &lt;/i&gt;&amp;gt; &lt;i style=&quot;&quot;&gt;min_split_gain&lt;/i&gt;&lt;/font&gt;&lt;/div&gt;&lt;/div&gt;" style="rhombus;whiteSpace=wrap;html=1;strokeColor=default;align=center;verticalAlign=middle;fontFamily=Helvetica;fontSize=12;fontColor=default;fillColor=none;" parent="1" vertex="1">
          <mxGeometry x="335" y="550" width="129.99" height="60" as="geometry" />
        </mxCell>
        <mxCell id="gYYAoUsyfD0-Huga9Zhp-25" value="Ya" style="text;html=1;align=center;verticalAlign=middle;resizable=0;points=[];autosize=1;strokeColor=none;fillColor=none;" parent="1" vertex="1">
          <mxGeometry x="530" y="522" width="40" height="30" as="geometry" />
        </mxCell>
        <mxCell id="gYYAoUsyfD0-Huga9Zhp-29" value="" style="edgeStyle=orthogonalEdgeStyle;rounded=0;orthogonalLoop=1;jettySize=auto;html=1;" parent="1" source="gYYAoUsyfD0-Huga9Zhp-26" target="gYYAoUsyfD0-Huga9Zhp-28" edge="1">
          <mxGeometry relative="1" as="geometry" />
        </mxCell>
        <mxCell id="gYYAoUsyfD0-Huga9Zhp-26" value="&lt;div style=&quot;line-height: 105%;&quot;&gt;SPLIT daun terpilih&lt;/div&gt;" style="rounded=0;whiteSpace=wrap;html=1;strokeColor=default;align=center;verticalAlign=middle;fontFamily=Helvetica;fontSize=12;fontColor=default;fillColor=none;" parent="1" vertex="1">
          <mxGeometry x="340" y="630" width="119.99" height="60" as="geometry" />
        </mxCell>
        <mxCell id="gYYAoUsyfD0-Huga9Zhp-30" style="edgeStyle=orthogonalEdgeStyle;rounded=0;orthogonalLoop=1;jettySize=auto;html=1;entryX=1;entryY=0.5;entryDx=0;entryDy=0;" parent="1" source="gYYAoUsyfD0-Huga9Zhp-28" target="gYYAoUsyfD0-Huga9Zhp-18" edge="1">
          <mxGeometry relative="1" as="geometry">
            <Array as="points">
              <mxPoint x="650" y="660" />
              <mxPoint x="650" y="500" />
            </Array>
          </mxGeometry>
        </mxCell>
        <mxCell id="gYYAoUsyfD0-Huga9Zhp-28" value="&lt;div style=&quot;line-height: 105%;&quot;&gt;Perbarui struktur pohon&lt;/div&gt;" style="rounded=0;whiteSpace=wrap;html=1;strokeColor=default;align=center;verticalAlign=middle;fontFamily=Helvetica;fontSize=12;fontColor=default;fillColor=none;" parent="1" vertex="1">
          <mxGeometry x="505" y="630" width="119.99" height="60" as="geometry" />
        </mxCell>
        <mxCell id="gYYAoUsyfD0-Huga9Zhp-45" value="" style="edgeStyle=orthogonalEdgeStyle;rounded=0;orthogonalLoop=1;jettySize=auto;html=1;" parent="1" source="gYYAoUsyfD0-Huga9Zhp-31" target="gYYAoUsyfD0-Huga9Zhp-33" edge="1">
          <mxGeometry relative="1" as="geometry" />
        </mxCell>
        <mxCell id="gYYAoUsyfD0-Huga9Zhp-31" value="&lt;div style=&quot;line-height: 105%;&quot;&gt;Pohon ke-&lt;i&gt;i&lt;/i&gt;&amp;nbsp;selesai dibangun&lt;/div&gt;" style="rounded=0;whiteSpace=wrap;html=1;strokeColor=default;align=center;verticalAlign=middle;fontFamily=Helvetica;fontSize=12;fontColor=default;fillColor=none;" parent="1" vertex="1">
          <mxGeometry x="504.99" y="710" width="119.99" height="60" as="geometry" />
        </mxCell>
        <mxCell id="gYYAoUsyfD0-Huga9Zhp-36" value="" style="edgeStyle=orthogonalEdgeStyle;rounded=0;orthogonalLoop=1;jettySize=auto;html=1;" parent="1" source="gYYAoUsyfD0-Huga9Zhp-33" target="gYYAoUsyfD0-Huga9Zhp-35" edge="1">
          <mxGeometry relative="1" as="geometry">
            <Array as="points">
              <mxPoint x="490" y="820" />
              <mxPoint x="490" y="740" />
            </Array>
          </mxGeometry>
        </mxCell>
        <mxCell id="gYYAoUsyfD0-Huga9Zhp-33" value="&lt;div style=&quot;line-height: 105%;&quot;&gt;Update Model Gabungan&lt;/div&gt;" style="rounded=0;whiteSpace=wrap;html=1;strokeColor=default;align=center;verticalAlign=middle;fontFamily=Helvetica;fontSize=12;fontColor=default;fillColor=none;" parent="1" vertex="1">
          <mxGeometry x="505" y="790" width="119.99" height="60" as="geometry" />
        </mxCell>
        <mxCell id="gYYAoUsyfD0-Huga9Zhp-37" style="edgeStyle=orthogonalEdgeStyle;rounded=0;orthogonalLoop=1;jettySize=auto;html=1;entryX=0.5;entryY=1;entryDx=0;entryDy=0;" parent="1" source="gYYAoUsyfD0-Huga9Zhp-35" target="gYYAoUsyfD0-Huga9Zhp-3" edge="1">
          <mxGeometry relative="1" as="geometry">
            <Array as="points">
              <mxPoint x="330" y="730" />
              <mxPoint x="330" y="380" />
              <mxPoint x="400" y="380" />
            </Array>
          </mxGeometry>
        </mxCell>
        <mxCell id="gYYAoUsyfD0-Huga9Zhp-35" value="&lt;div style=&quot;line-height: 105%;&quot;&gt;Naikkan Penghitung: &lt;span class=&quot;katex&quot;&gt;&lt;span aria-hidden=&quot;true&quot; class=&quot;katex-html&quot;&gt;&lt;span class=&quot;base&quot;&gt;&lt;span style=&quot;height: 0.6595em;&quot; class=&quot;strut&quot;&gt;&lt;/span&gt;&lt;span class=&quot;mord mathnormal&quot;&gt;i&lt;/span&gt;&lt;span style=&quot;margin-right: 0.2778em;&quot; class=&quot;mspace&quot;&gt;&lt;/span&gt;&lt;span class=&quot;mrel&quot;&gt;=&lt;/span&gt;&lt;span style=&quot;margin-right: 0.2778em;&quot; class=&quot;mspace&quot;&gt;&lt;/span&gt;&lt;/span&gt;&lt;span class=&quot;base&quot;&gt;&lt;span style=&quot;height: 0.7429em; vertical-align: -0.0833em;&quot; class=&quot;strut&quot;&gt;&lt;/span&gt;&lt;span class=&quot;mord mathnormal&quot;&gt;i&lt;/span&gt;&lt;span style=&quot;margin-right: 0.2222em;&quot; class=&quot;mspace&quot;&gt;&lt;/span&gt;&lt;span class=&quot;mbin&quot;&gt;+&lt;/span&gt;&lt;span style=&quot;margin-right: 0.2222em;&quot; class=&quot;mspace&quot;&gt;&lt;/span&gt;&lt;/span&gt;&lt;span class=&quot;base&quot;&gt;&lt;span style=&quot;height: 0.6444em;&quot; class=&quot;strut&quot;&gt;&lt;/span&gt;&lt;span class=&quot;mord&quot;&gt;1&lt;/span&gt;&lt;/span&gt;&lt;/span&gt;&lt;/span&gt;&lt;/div&gt;" style="rounded=0;whiteSpace=wrap;html=1;strokeColor=default;align=center;verticalAlign=middle;fontFamily=Helvetica;fontSize=12;fontColor=default;fillColor=none;" parent="1" vertex="1">
          <mxGeometry x="345" y="710" width="119.99" height="60" as="geometry" />
        </mxCell>
        <mxCell id="gYYAoUsyfD0-Huga9Zhp-40" value="" style="edgeStyle=orthogonalEdgeStyle;rounded=0;orthogonalLoop=1;jettySize=auto;html=1;" parent="1" source="gYYAoUsyfD0-Huga9Zhp-38" target="gYYAoUsyfD0-Huga9Zhp-39" edge="1">
          <mxGeometry relative="1" as="geometry" />
        </mxCell>
        <mxCell id="gYYAoUsyfD0-Huga9Zhp-38" value="Model Final" style="shape=parallelogram;perimeter=parallelogramPerimeter;whiteSpace=wrap;html=1;fixedSize=1;strokeColor=default;align=center;verticalAlign=middle;fontFamily=Helvetica;fontSize=12;fontColor=default;fillColor=none;" parent="1" vertex="1">
          <mxGeometry x="345" y="790" width="120" height="60" as="geometry" />
        </mxCell>
        <mxCell id="gYYAoUsyfD0-Huga9Zhp-39" value="Selesai" style="ellipse;whiteSpace=wrap;html=1;strokeColor=default;align=center;verticalAlign=middle;fontFamily=Helvetica;fontSize=12;fontColor=default;fillColor=none;" parent="1" vertex="1">
          <mxGeometry x="345" y="880" width="120" height="80" as="geometry" />
        </mxCell>
        <mxCell id="gYYAoUsyfD0-Huga9Zhp-42" value="Tidak" style="text;html=1;align=center;verticalAlign=middle;resizable=0;points=[];autosize=1;strokeColor=none;fillColor=none;" parent="1" vertex="1">
          <mxGeometry x="305" y="308" width="50" height="30" as="geometry" />
        </mxCell>
        <mxCell id="gYYAoUsyfD0-Huga9Zhp-44" value="Tidak" style="text;html=1;align=center;verticalAlign=middle;resizable=0;points=[];autosize=1;strokeColor=none;fillColor=none;" parent="1" vertex="1">
          <mxGeometry x="568" y="454" width="50" height="30" as="geometry" />
        </mxCell>
        <mxCell id="gYYAoUsyfD0-Huga9Zhp-46" value="Ya" style="text;html=1;align=center;verticalAlign=middle;resizable=0;points=[];autosize=1;strokeColor=none;fillColor=none;" parent="1" vertex="1">
          <mxGeometry x="400" y="598" width="40" height="30" as="geometry" />
        </mxCell>
        <mxCell id="gYYAoUsyfD0-Huga9Zhp-48" value="Tidak" style="text;html=1;align=center;verticalAlign=middle;resizable=0;points=[];autosize=1;strokeColor=none;fillColor=none;" parent="1" vertex="1">
          <mxGeometry x="389" y="530" width="50" height="30" as="geometry" />
        </mxCell>
      </root>
    </mxGraphModel>
  </diagram>
</mxfile>
